<svg width="342" height="54" viewBox="0 0 342 54" fill="none" xmlns="http://www.w3.org/2000/svg">
<rect x="4" width="338" height="54" rx="13" fill="#F11420"/>
<path d="M62.2811 31C62.1425 31 61.9505 30.968 61.7051 30.904C61.4598 30.84 61.2465 30.7013 61.0651 30.488C61.0545 31.2133 60.9691 31.816 60.8091 32.296C60.6491 32.7867 60.4091 33.1813 60.0891 33.48C59.7691 33.7787 59.3638 33.992 58.8731 34.12C58.3825 34.248 57.7958 34.3173 57.1131 34.328V32.376C57.5505 32.3653 57.8971 32.3173 58.1531 32.232C58.4091 32.1467 58.6011 32.008 58.7291 31.816C58.8571 31.6347 58.9371 31.4 58.9691 31.112C59.0118 30.8347 59.0331 30.4987 59.0331 30.104V25.336H61.0971V28.056C61.0971 28.2693 61.1291 28.4453 61.1931 28.584C61.2678 28.7227 61.3585 28.8347 61.4651 28.92C61.5825 29.0053 61.7105 29.0693 61.8491 29.112C61.9985 29.144 62.1425 29.16 62.2811 29.16C62.3665 29.16 62.4465 29.1707 62.5211 29.192C62.5958 29.2027 62.6598 29.24 62.7131 29.304C62.7771 29.3573 62.8251 29.4427 62.8571 29.56C62.8891 29.6773 62.9051 29.8373 62.9051 30.04C62.9051 30.4027 62.8518 30.6533 62.7451 30.792C62.6491 30.9307 62.4945 31 62.2811 31ZM62.2812 31C62.1959 31 62.1159 30.9893 62.0412 30.968C61.9666 30.9467 61.9026 30.9093 61.8492 30.856C61.7852 30.792 61.7372 30.7013 61.7052 30.584C61.6732 30.4667 61.6572 30.3067 61.6572 30.104C61.6572 29.7413 61.7106 29.4907 61.8172 29.352C61.9132 29.2133 62.0679 29.144 62.2812 29.144H64.8093V24.632H66.9053V31H62.2812ZM62.4573 33.688C62.4573 33.3787 62.5693 33.112 62.7933 32.888C63.0173 32.664 63.2839 32.552 63.5933 32.552C63.9026 32.552 64.1693 32.664 64.3932 32.888C64.6173 33.112 64.7293 33.3787 64.7293 33.688C64.7293 33.9973 64.6173 34.264 64.3932 34.488C64.1693 34.712 63.9026 34.824 63.5933 34.824C63.2839 34.824 63.0173 34.712 62.7933 34.488C62.5693 34.264 62.4573 33.9973 62.4573 33.688ZM65.0653 33.688C65.0653 33.3787 65.1773 33.112 65.4013 32.888C65.6253 32.664 65.8919 32.552 66.2013 32.552C66.5106 32.552 66.7773 32.664 67.0013 32.888C67.2253 33.112 67.3373 33.3787 67.3373 33.688C67.3373 33.9973 67.2253 34.264 67.0013 34.488C66.7773 34.712 66.5106 34.824 66.2013 34.824C65.8919 34.824 65.6253 34.712 65.4013 34.488C65.1773 34.264 65.0653 33.9973 65.0653 33.688ZM74.6278 30.04C74.6278 30.7867 74.5318 31.4267 74.3398 31.96C74.1478 32.504 73.8438 32.952 73.4278 33.304C73.0224 33.656 72.4944 33.912 71.8438 34.072C71.2038 34.2427 70.4304 34.328 69.5238 34.328H69.0278V32.376H69.3958C69.9718 32.376 70.4518 32.3387 70.8358 32.264C71.2304 32.1893 71.5398 32.0827 71.7638 31.944C71.9984 31.816 72.1691 31.656 72.2758 31.464C72.3824 31.2827 72.4464 31.08 72.4678 30.856C72.1478 30.952 71.7584 31 71.2998 31C70.8731 31 70.4731 30.9467 70.0998 30.84C69.7264 30.7333 69.4011 30.5627 69.1238 30.328C68.8571 30.0827 68.6438 29.7733 68.4838 29.4C68.3238 29.016 68.2438 28.5573 68.2438 28.024C68.2438 27.5973 68.3131 27.176 68.4518 26.76C68.6011 26.344 68.8091 25.9707 69.0758 25.64C69.3531 25.3093 69.6944 25.048 70.0998 24.856C70.5051 24.6533 70.9744 24.552 71.5078 24.552C72.0944 24.552 72.5851 24.6533 72.9798 24.856C73.3851 25.0587 73.7051 25.3467 73.9398 25.72C74.1851 26.0827 74.3611 26.52 74.4678 27.032C74.5744 27.5333 74.6278 28.088 74.6278 28.696V30.04ZM70.2918 27.832C70.2918 28.376 70.3984 28.744 70.6118 28.936C70.8251 29.1173 71.1184 29.208 71.4918 29.208C71.9291 29.208 72.2811 29.1333 72.5477 28.984V28.2C72.5477 27.656 72.4678 27.224 72.3078 26.904C72.1478 26.584 71.8598 26.424 71.4438 26.424C71.0278 26.424 70.7291 26.5627 70.5478 26.84C70.3771 27.1173 70.2918 27.448 70.2918 27.832ZM81.948 28.984C81.948 29.2613 81.9 29.5227 81.804 29.768C81.7187 30.0133 81.5853 30.2267 81.404 30.408C81.2227 30.5893 80.988 30.7333 80.7 30.84C80.412 30.9467 80.0707 31 79.676 31H75.804V29.16H78.94C79.1853 29.16 79.3773 29.1387 79.516 29.096C79.6547 29.0427 79.724 28.952 79.724 28.824C79.724 28.76 79.7133 28.696 79.692 28.632C79.6813 28.568 79.644 28.4827 79.58 28.376C79.516 28.2587 79.42 28.1093 79.292 27.928C79.1747 27.7467 79.0147 27.5067 78.812 27.208L77.548 25.32C77.868 25.1067 78.1773 24.904 78.476 24.712C78.7853 24.5093 79.1053 24.3067 79.436 24.104L80.828 26.36C81.2013 26.968 81.4787 27.4747 81.66 27.88C81.852 28.2853 81.948 28.6533 81.948 28.984ZM84.6578 25.336H86.7378V30.104C86.7378 30.872 86.6791 31.5227 86.5618 32.056C86.4444 32.5893 86.2364 33.0213 85.9378 33.352C85.6498 33.6933 85.2444 33.9387 84.7218 34.088C84.2098 34.2373 83.5538 34.3173 82.7538 34.328V32.376C83.1911 32.3653 83.5324 32.3173 83.7778 32.232C84.0338 32.1467 84.2258 32.008 84.3538 31.816C84.4818 31.6347 84.5618 31.4 84.5938 31.112C84.6364 30.8347 84.6578 30.4987 84.6578 30.104V25.336ZM92.4391 30.04C92.4391 30.4027 92.3858 30.6533 92.2791 30.792C92.1831 30.9307 92.0285 31 91.8151 31H91.1431C90.7805 31 90.4445 30.9627 90.1351 30.888C89.8365 30.8027 89.5751 30.6693 89.3511 30.488C89.1378 30.296 88.9671 30.0453 88.8391 29.736C88.7218 29.4267 88.6631 29.0427 88.6631 28.584V19.576H90.7431V28.296C90.7431 28.6693 90.8071 28.9093 90.9351 29.016C91.0738 29.112 91.2658 29.16 91.5111 29.16H91.8151C91.9005 29.16 91.9805 29.1707 92.0551 29.192C92.1298 29.2027 92.1938 29.24 92.2471 29.304C92.3111 29.3573 92.3591 29.4427 92.3911 29.56C92.4231 29.6773 92.4391 29.8373 92.4391 30.04ZM93.7169 29.16C93.5675 28.7653 93.4929 28.3547 93.4929 27.928C93.4929 27.4267 93.5835 26.952 93.7649 26.504C93.9462 26.0453 94.2022 25.6773 94.5329 25.4C94.3622 25.4107 94.1862 25.4213 94.0049 25.432C93.8235 25.432 93.6422 25.4427 93.4609 25.464V24.008C93.7702 23.9653 94.0742 23.9333 94.3729 23.912C94.6822 23.8907 94.9862 23.88 95.2849 23.88C97.2689 23.88 98.7942 24.3653 99.8609 25.336C100.938 26.296 101.477 27.688 101.477 29.512V31H91.7969C91.7115 31 91.6315 30.9947 91.5569 30.984C91.4822 30.9627 91.4182 30.9253 91.3649 30.872C91.3009 30.808 91.2529 30.7173 91.2209 30.6C91.1889 30.4827 91.1729 30.3227 91.1729 30.12C91.1729 29.7573 91.2262 29.5067 91.3329 29.368C91.4289 29.2293 91.5835 29.16 91.7969 29.16H93.7169ZM98.0209 27.688C98.0209 28.008 97.9942 28.2907 97.9409 28.536C97.8982 28.7707 97.8395 28.9787 97.7649 29.16H99.4769C99.4769 28.1893 99.2955 27.4373 98.9329 26.904C98.5702 26.36 98.0369 25.9707 97.3329 25.736C97.5782 26.0453 97.7542 26.3867 97.8609 26.76C97.9675 27.1227 98.0209 27.432 98.0209 27.688ZM95.7809 29.08C95.8982 29.08 95.9942 29.032 96.0689 28.936C96.1542 28.8293 96.2182 28.7067 96.2609 28.568C96.3035 28.4187 96.3302 28.264 96.3409 28.104C96.3622 27.944 96.3729 27.8053 96.3729 27.688C96.3729 27.528 96.3622 27.3627 96.3409 27.192C96.3195 27.0213 96.2822 26.8667 96.2289 26.728C96.1755 26.5787 96.1062 26.456 96.0209 26.36C95.9462 26.264 95.8449 26.216 95.7169 26.216C95.6102 26.216 95.5142 26.264 95.4289 26.36C95.3542 26.4453 95.2902 26.5627 95.2369 26.712C95.1835 26.8507 95.1409 27.0107 95.1089 27.192C95.0875 27.3627 95.0769 27.5387 95.0769 27.72C95.0769 27.848 95.0875 27.992 95.1089 28.152C95.1302 28.312 95.1675 28.4613 95.2209 28.6C95.2742 28.7387 95.3435 28.856 95.4289 28.952C95.5249 29.0373 95.6422 29.08 95.7809 29.08ZM119.63 31H110.062C109.433 31 108.905 30.9573 108.478 30.872C108.052 30.776 107.71 30.6267 107.454 30.424C107.198 30.2213 107.012 29.96 106.894 29.64C106.788 29.32 106.734 28.9307 106.734 28.472V25.832H108.83V28.168C108.83 28.3707 108.857 28.536 108.91 28.664C108.964 28.792 109.06 28.8933 109.198 28.968C109.337 29.0427 109.524 29.096 109.758 29.128C109.993 29.1493 110.292 29.16 110.654 29.16H117.55V24.632H119.63V31ZM112.254 33.688C112.254 33.3787 112.366 33.112 112.59 32.888C112.814 32.664 113.081 32.552 113.39 32.552C113.7 32.552 113.966 32.664 114.19 32.888C114.414 33.112 114.526 33.3787 114.526 33.688C114.526 33.9973 114.414 34.264 114.19 34.488C113.966 34.712 113.7 34.824 113.39 34.824C113.081 34.824 112.814 34.712 112.59 34.488C112.366 34.264 112.254 33.9973 112.254 33.688ZM125.922 31C125.783 31 125.591 30.968 125.346 30.904C125.1 30.84 124.887 30.7013 124.706 30.488C124.695 31.2133 124.61 31.816 124.45 32.296C124.29 32.7867 124.05 33.1813 123.73 33.48C123.41 33.7787 123.004 33.992 122.514 34.12C122.023 34.248 121.436 34.3173 120.754 34.328V32.376C121.191 32.3653 121.538 32.3173 121.794 32.232C122.05 32.1467 122.242 32.008 122.37 31.816C122.498 31.6347 122.578 31.4 122.61 31.112C122.652 30.8347 122.674 30.4987 122.674 30.104V25.336H124.738V28.056C124.738 28.2693 124.77 28.4453 124.834 28.584C124.908 28.7227 124.999 28.8347 125.106 28.92C125.223 29.0053 125.351 29.0693 125.49 29.112C125.639 29.144 125.783 29.16 125.922 29.16C126.007 29.16 126.087 29.1707 126.162 29.192C126.236 29.2027 126.3 29.24 126.354 29.304C126.418 29.3573 126.466 29.4427 126.498 29.56C126.53 29.6773 126.546 29.8373 126.546 30.04C126.546 30.4027 126.492 30.6533 126.386 30.792C126.29 30.9307 126.135 31 125.922 31ZM127.106 29.16C126.999 28.9573 126.919 28.7173 126.866 28.44C126.813 28.152 126.786 27.9067 126.786 27.704C126.786 27.1387 126.893 26.648 127.106 26.232C127.319 25.816 127.597 25.4747 127.938 25.208C128.279 24.9307 128.658 24.728 129.074 24.6C129.501 24.4613 129.927 24.392 130.354 24.392C130.695 24.392 131.037 24.4293 131.378 24.504C131.73 24.5787 131.997 24.6533 132.178 24.728V26.616C131.847 26.5627 131.506 26.5093 131.154 26.456C130.802 26.4027 130.557 26.376 130.418 26.376C129.789 26.376 129.341 26.5093 129.074 26.776C128.807 27.0427 128.674 27.368 128.674 27.752C128.674 28.1787 128.802 28.52 129.058 28.776C129.325 29.032 129.778 29.16 130.418 29.16H132.946V31H125.922C125.837 31 125.757 30.9947 125.682 30.984C125.607 30.9627 125.543 30.9253 125.49 30.872C125.426 30.808 125.378 30.7173 125.346 30.6C125.314 30.4827 125.298 30.3227 125.298 30.12C125.298 29.7573 125.351 29.5067 125.458 29.368C125.554 29.2293 125.709 29.16 125.922 29.16H127.106ZM139.923 26.84C139.923 26.968 139.939 27.1067 139.971 27.256C140.003 27.3947 140.061 27.5227 140.147 27.64C140.232 27.7467 140.344 27.8373 140.483 27.912C140.632 27.9867 140.819 28.024 141.043 28.024C141.181 28.024 141.32 28.0187 141.459 28.008C141.608 27.9973 141.757 27.9653 141.907 27.912V25.704H141.107C140.712 25.704 140.413 25.8107 140.211 26.024C140.019 26.2267 139.923 26.4987 139.923 26.84ZM144.387 31C144.131 31 143.88 30.984 143.635 30.952C143.4 30.9093 143.181 30.84 142.979 30.744C142.776 30.648 142.595 30.52 142.435 30.36C142.285 30.1893 142.168 29.9707 142.083 29.704C141.901 29.7467 141.715 29.784 141.523 29.816C141.331 29.8373 141.139 29.848 140.947 29.848C140.68 29.848 140.371 29.8107 140.019 29.736C139.667 29.6507 139.331 29.5013 139.011 29.288C138.701 29.0747 138.435 28.7813 138.211 28.408C137.997 28.024 137.891 27.5333 137.891 26.936C137.891 26.3493 137.992 25.8533 138.195 25.448C138.408 25.0427 138.675 24.712 138.995 24.456C139.325 24.2 139.688 24.0187 140.083 23.912C140.488 23.7947 140.883 23.736 141.267 23.736H143.987V28.52C143.987 28.7653 144.019 28.936 144.083 29.032C144.147 29.1173 144.296 29.16 144.531 29.16H144.915C145 29.16 145.08 29.1707 145.155 29.192C145.229 29.2027 145.293 29.24 145.347 29.304C145.411 29.3573 145.459 29.4427 145.491 29.56C145.523 29.6773 145.539 29.8373 145.539 30.04C145.539 30.4027 145.485 30.6533 145.379 30.792C145.283 30.9307 145.128 31 144.915 31H144.387ZM138.963 21.064C138.963 20.7547 139.075 20.488 139.299 20.264C139.523 20.04 139.789 19.928 140.099 19.928C140.408 19.928 140.675 20.04 140.899 20.264C141.123 20.488 141.235 20.7547 141.235 21.064C141.235 21.3733 141.123 21.64 140.899 21.864C140.675 22.088 140.408 22.2 140.099 22.2C139.789 22.2 139.523 22.088 139.299 21.864C139.075 21.64 138.963 21.3733 138.963 21.064ZM141.571 21.064C141.571 20.7547 141.683 20.488 141.907 20.264C142.131 20.04 142.397 19.928 142.707 19.928C143.016 19.928 143.283 20.04 143.507 20.264C143.731 20.488 143.843 20.7547 143.843 21.064C143.843 21.3733 143.731 21.64 143.507 21.864C143.283 22.088 143.016 22.2 142.707 22.2C142.397 22.2 142.131 22.088 141.907 21.864C141.683 21.64 141.571 21.3733 141.571 21.064ZM146.826 29.16V19.576H148.89V26.248C149.306 25.7253 149.818 25.2933 150.426 24.952C151.045 24.6 151.701 24.424 152.394 24.424C153.503 24.424 154.341 24.7547 154.906 25.416C155.482 26.0773 155.77 26.984 155.77 28.136V29.16H157.018C157.103 29.16 157.183 29.1707 157.258 29.192C157.333 29.2027 157.397 29.24 157.45 29.304C157.514 29.3573 157.562 29.4427 157.594 29.56C157.626 29.6773 157.642 29.8373 157.642 30.04C157.642 30.4027 157.589 30.6533 157.482 30.792C157.386 30.9307 157.231 31 157.018 31H144.922C144.837 31 144.757 30.9947 144.682 30.984C144.607 30.9627 144.543 30.9253 144.49 30.872C144.426 30.808 144.378 30.7173 144.346 30.6C144.314 30.4827 144.298 30.3227 144.298 30.12C144.298 29.7573 144.351 29.5067 144.458 29.368C144.554 29.2293 144.709 29.16 144.922 29.16H146.826ZM153.706 29.16V28.248C153.706 27.7253 153.589 27.2827 153.354 26.92C153.13 26.5573 152.725 26.376 152.138 26.376C151.818 26.376 151.503 26.4507 151.194 26.6C150.885 26.7493 150.591 26.952 150.314 27.208C150.047 27.464 149.797 27.7627 149.562 28.104C149.338 28.4347 149.151 28.7867 149.002 29.16H153.706ZM157.672 29.16C157.906 29.16 158.098 29.1547 158.248 29.144C158.408 29.1333 158.536 29.1013 158.632 29.048C158.728 28.9947 158.797 28.92 158.84 28.824C158.882 28.7173 158.904 28.5733 158.904 28.392V25.336H160.952V28.056C160.952 28.3973 161.042 28.6693 161.224 28.872C161.416 29.064 161.709 29.16 162.104 29.16C162.413 29.16 162.674 29.112 162.888 29.016C163.112 28.92 163.224 28.712 163.224 28.392V25.336H165.304V28.056C165.304 28.792 165.618 29.16 166.248 29.16H167.24V24.632H169.32V31H166.872C166.306 31 165.88 30.936 165.592 30.808C165.304 30.6693 165.058 30.456 164.856 30.168C164.696 30.3707 164.525 30.5307 164.344 30.648C164.162 30.7547 163.976 30.8347 163.784 30.888C163.592 30.9413 163.4 30.9733 163.208 30.984C163.026 30.9947 162.85 31 162.68 31C162.136 31 161.677 30.9147 161.304 30.744C160.941 30.5627 160.68 30.3707 160.52 30.168C160.232 30.5413 159.858 30.776 159.4 30.872C158.941 30.9573 158.354 31 157.64 31H157.016C156.93 31 156.85 30.9947 156.776 30.984C156.701 30.9627 156.637 30.9253 156.584 30.872C156.52 30.808 156.472 30.7173 156.44 30.6C156.408 30.4827 156.392 30.3227 156.392 30.12C156.392 29.7573 156.445 29.5067 156.552 29.368C156.648 29.2293 156.802 29.16 157.016 29.16H157.672ZM173.305 19.576V31H171.241V19.576H173.305ZM181.018 31C180.868 32.1627 180.388 33.0053 179.578 33.528C178.767 34.0613 177.556 34.328 175.946 34.328H175.45V32.376H175.818C176.372 32.376 176.836 32.344 177.21 32.28C177.583 32.216 177.887 32.12 178.122 31.992C178.367 31.8747 178.548 31.7307 178.666 31.56C178.783 31.4 178.858 31.2133 178.89 31H177.898C177.428 31 176.996 30.9467 176.602 30.84C176.207 30.7333 175.866 30.5627 175.578 30.328C175.29 30.0827 175.066 29.7733 174.906 29.4C174.746 29.016 174.666 28.5573 174.666 28.024C174.666 27.5973 174.735 27.176 174.874 26.76C175.023 26.344 175.236 25.9707 175.514 25.64C175.791 25.3093 176.132 25.048 176.538 24.856C176.943 24.6533 177.407 24.552 177.93 24.552C178.516 24.552 179.007 24.6533 179.402 24.856C179.807 25.0587 180.132 25.3467 180.378 25.72C180.623 26.0827 180.799 26.52 180.906 27.032C181.012 27.5333 181.066 28.088 181.066 28.696V29.16H182.234C182.319 29.16 182.399 29.1707 182.474 29.192C182.548 29.2027 182.612 29.24 182.666 29.304C182.73 29.3573 182.778 29.4427 182.81 29.56C182.842 29.6773 182.858 29.8373 182.858 30.04C182.858 30.4027 182.804 30.6533 182.698 30.792C182.602 30.9307 182.447 31 182.234 31H181.018ZM176.714 27.832C176.714 28.344 176.82 28.696 177.034 28.888C177.258 29.0693 177.551 29.16 177.914 29.16H178.97V28.2C178.97 27.688 178.89 27.2667 178.73 26.936C178.57 26.5947 178.271 26.424 177.834 26.424C177.439 26.424 177.151 26.5573 176.97 26.824C176.799 27.0907 176.714 27.4267 176.714 27.832ZM184.074 29.16V24.632H186.17V31H182.234C182.149 31 182.069 30.9947 181.994 30.984C181.92 30.9627 181.856 30.9253 181.802 30.872C181.738 30.808 181.69 30.7173 181.658 30.6C181.626 30.4827 181.61 30.3227 181.61 30.12C181.61 29.7573 181.664 29.5067 181.77 29.368C181.866 29.2293 182.021 29.16 182.234 29.16H184.074ZM183.818 33.64C183.818 33.3307 183.93 33.064 184.154 32.84C184.378 32.616 184.645 32.504 184.954 32.504C185.264 32.504 185.53 32.616 185.754 32.84C185.978 33.064 186.09 33.3307 186.09 33.64C186.09 33.9493 185.978 34.216 185.754 34.44C185.53 34.664 185.264 34.776 184.954 34.776C184.645 34.776 184.378 34.664 184.154 34.44C183.93 34.216 183.818 33.9493 183.818 33.64ZM200.362 19.576V30.808C200.362 32.216 199.978 33.2827 199.21 34.008C198.453 34.7333 197.375 35.096 195.978 35.096C195.253 35.096 194.613 34.9947 194.058 34.792C193.514 34.5893 193.055 34.3013 192.682 33.928C192.319 33.5653 192.042 33.128 191.85 32.616C191.669 32.1147 191.578 31.5547 191.578 30.936V28.472H192.874V30.664C192.874 32.744 193.919 33.784 196.01 33.784C197.087 33.784 197.866 33.5493 198.346 33.08C198.826 32.6213 199.066 31.8587 199.066 30.792V19.576H200.362ZM208.268 31C208.225 31.6507 208.087 32.1893 207.852 32.616C207.628 33.0427 207.319 33.384 206.924 33.64C206.529 33.896 206.055 34.0773 205.5 34.184C204.956 34.2907 204.348 34.344 203.676 34.344H203.004V33.016H203.5C204.001 33.016 204.46 32.9893 204.876 32.936C205.292 32.8933 205.649 32.7973 205.948 32.648C206.257 32.5093 206.497 32.3067 206.668 32.04C206.849 31.7733 206.945 31.4267 206.956 31H205.148C204.711 31 204.305 30.952 203.932 30.856C203.569 30.76 203.249 30.6053 202.972 30.392C202.705 30.168 202.492 29.88 202.332 29.528C202.183 29.176 202.108 28.7387 202.108 28.216C202.108 27.7787 202.177 27.352 202.316 26.936C202.465 26.52 202.673 26.152 202.94 25.832C203.217 25.512 203.548 25.256 203.932 25.064C204.327 24.8613 204.775 24.76 205.276 24.76C205.831 24.76 206.3 24.8613 206.684 25.064C207.068 25.256 207.377 25.5333 207.612 25.896C207.857 26.2587 208.033 26.696 208.14 27.208C208.247 27.72 208.3 28.2907 208.3 28.92V29.672H209.42C209.847 29.672 210.06 29.8853 210.06 30.312C210.06 30.5787 210.007 30.76 209.9 30.856C209.804 30.952 209.644 31 209.42 31H208.268ZM203.388 28.088C203.388 28.632 203.543 29.032 203.852 29.288C204.172 29.544 204.636 29.672 205.244 29.672H206.956V28.616C206.956 27.8267 206.823 27.1973 206.556 26.728C206.289 26.2587 205.831 26.024 205.18 26.024C204.871 26.024 204.604 26.088 204.38 26.216C204.156 26.3333 203.969 26.4933 203.82 26.696C203.681 26.888 203.575 27.1067 203.5 27.352C203.425 27.5973 203.388 27.8427 203.388 28.088ZM215.838 29.672C215.838 28.9893 215.747 28.4133 215.566 27.944C215.385 27.4747 215.139 27.096 214.83 26.808C214.521 26.5093 214.158 26.296 213.742 26.168C213.337 26.0293 212.899 25.96 212.43 25.96C212.121 25.96 211.79 25.992 211.438 26.056C211.097 26.1093 210.814 26.168 210.59 26.232V24.952C210.803 24.888 211.086 24.8187 211.438 24.744C211.79 24.6587 212.174 24.616 212.59 24.616C213.401 24.616 214.099 24.7547 214.686 25.032C215.273 25.3093 215.753 25.688 216.126 26.168C216.499 26.6373 216.771 27.192 216.942 27.832C217.123 28.4613 217.214 29.128 217.214 29.832V31H209.422C208.995 31 208.782 30.7867 208.782 30.36C208.782 30.0933 208.835 29.912 208.942 29.816C209.038 29.72 209.198 29.672 209.422 29.672H215.838ZM211.87 22.168C211.87 21.9333 211.95 21.736 212.11 21.576C212.281 21.4053 212.483 21.32 212.718 21.32C212.953 21.32 213.15 21.4053 213.31 21.576C213.481 21.736 213.566 21.9333 213.566 22.168C213.566 22.4027 213.481 22.6053 213.31 22.776C213.15 22.936 212.953 23.016 212.718 23.016C212.483 23.016 212.281 22.936 212.11 22.776C211.95 22.6053 211.87 22.4027 211.87 22.168ZM225.504 31C225.066 31 224.698 30.9093 224.4 30.728C224.101 30.5467 223.802 30.2213 223.504 29.752C223.386 30.04 223.232 30.2693 223.04 30.44C222.858 30.6107 222.65 30.7387 222.416 30.824C222.192 30.8987 221.952 30.9467 221.696 30.968C221.44 30.9893 221.184 31 220.928 31H218.496V29.672H221.36C221.808 29.672 222.149 29.6187 222.384 29.512C222.629 29.3947 222.752 29.2293 222.752 29.016C222.752 28.8133 222.698 28.6107 222.592 28.408C222.485 28.2053 222.352 27.9867 222.192 27.752L220.496 25.24L221.728 24.472L223.648 27.656C223.861 28.008 224.048 28.312 224.208 28.568C224.368 28.824 224.517 29.032 224.656 29.192C224.805 29.352 224.944 29.4747 225.072 29.56C225.21 29.6347 225.354 29.672 225.504 29.672C225.93 29.672 226.144 29.8853 226.144 30.312C226.144 30.5787 226.09 30.76 225.984 30.856C225.888 30.952 225.728 31 225.504 31ZM225.5 31C225.073 31 224.86 30.7867 224.86 30.36C224.86 30.0933 224.913 29.912 225.02 29.816C225.116 29.72 225.276 29.672 225.5 29.672H227.996V19.576H229.308V31H225.5ZM232.854 19.576V31H231.542V19.576H232.854ZM247.206 31C247.163 32.344 246.763 33.3627 246.006 34.056C245.249 34.7493 244.187 35.096 242.822 35.096C242.097 35.096 241.457 34.9947 240.902 34.792C240.358 34.5893 239.899 34.3013 239.526 33.928C239.163 33.5653 238.886 33.128 238.694 32.616C238.513 32.1147 238.422 31.5547 238.422 30.936V28.472H239.718V30.664C239.718 32.744 240.763 33.784 242.854 33.784C243.931 33.784 244.71 33.5493 245.19 33.08C245.67 32.6213 245.91 31.8587 245.91 30.792V19.576H247.206V29.672H248.454C248.881 29.672 249.094 29.8853 249.094 30.312C249.094 30.5787 249.041 30.76 248.934 30.856C248.838 30.952 248.678 31 248.454 31H247.206ZM248.453 31C248.026 31 247.813 30.7867 247.813 30.36C247.813 30.0933 247.866 29.912 247.973 29.816C248.069 29.72 248.229 29.672 248.453 29.672H249.525C249.781 29.672 250 29.6613 250.181 29.64C250.362 29.6187 250.512 29.5707 250.629 29.496C250.757 29.4107 250.848 29.2933 250.901 29.144C250.965 28.984 250.997 28.7707 250.997 28.504V24.84H252.309V27.912C252.309 28.1787 252.325 28.424 252.357 28.648C252.4 28.8613 252.474 29.0427 252.581 29.192C252.688 29.3413 252.832 29.4587 253.013 29.544C253.194 29.6293 253.424 29.672 253.701 29.672C254.128 29.672 254.341 29.8853 254.341 30.312C254.341 30.5787 254.288 30.76 254.181 30.856C254.085 30.952 253.925 31 253.701 31C253.285 31 252.949 30.904 252.693 30.712C252.437 30.5093 252.266 30.2587 252.181 29.96C251.989 30.3973 251.685 30.68 251.269 30.808C250.864 30.936 250.362 31 249.765 31H248.453ZM249.717 33.416C249.717 33.1813 249.797 32.9787 249.957 32.808C250.128 32.648 250.33 32.568 250.565 32.568C250.8 32.568 250.997 32.648 251.157 32.808C251.328 32.9787 251.413 33.1813 251.413 33.416C251.413 33.6507 251.328 33.848 251.157 34.008C250.997 34.1787 250.8 34.264 250.565 34.264C250.33 34.264 250.128 34.1787 249.957 34.008C249.797 33.848 249.717 33.6507 249.717 33.416ZM251.797 33.416C251.797 33.1813 251.877 32.9787 252.037 32.808C252.208 32.648 252.41 32.568 252.645 32.568C252.88 32.568 253.077 32.648 253.237 32.808C253.408 32.9787 253.493 33.1813 253.493 33.416C253.493 33.6507 253.408 33.848 253.237 34.008C253.077 34.1787 252.88 34.264 252.645 34.264C252.41 34.264 252.208 34.1787 252.037 34.008C251.877 33.848 251.797 33.6507 251.797 33.416ZM253.703 31C253.276 31 253.063 30.7867 253.063 30.36C253.063 30.0933 253.116 29.912 253.223 29.816C253.319 29.72 253.479 29.672 253.703 29.672H260.119C260.119 28.9893 260.028 28.4133 259.847 27.944C259.666 27.4747 259.42 27.096 259.111 26.808C258.802 26.5093 258.439 26.296 258.023 26.168C257.618 26.0293 257.18 25.96 256.711 25.96C256.402 25.96 256.071 25.992 255.719 26.056C255.378 26.1093 255.095 26.168 254.871 26.232V24.952C255.084 24.888 255.367 24.8187 255.719 24.744C256.071 24.6587 256.455 24.616 256.871 24.616C257.671 24.616 258.359 24.7493 258.935 25.016C259.511 25.2827 259.986 25.6507 260.359 26.12C260.743 26.5787 261.026 27.1173 261.207 27.736C261.388 28.344 261.484 28.9893 261.495 29.672H262.487C262.914 29.672 263.127 29.8853 263.127 30.312C263.127 30.5787 263.074 30.76 262.967 30.856C262.871 30.952 262.711 31 262.487 31H253.703ZM257.047 33.4C257.047 33.1653 257.127 32.9627 257.287 32.792C257.458 32.632 257.66 32.552 257.895 32.552C258.13 32.552 258.327 32.632 258.487 32.792C258.658 32.9627 258.743 33.1653 258.743 33.4C258.743 33.6347 258.658 33.832 258.487 33.992C258.327 34.1627 258.13 34.248 257.895 34.248C257.66 34.248 257.458 34.1627 257.287 33.992C257.127 33.832 257.047 33.6347 257.047 33.4ZM263.06 29.672C263.412 29.672 263.711 29.6613 263.956 29.64C264.201 29.6187 264.393 29.5707 264.532 29.496C264.681 29.4107 264.788 29.2933 264.852 29.144C264.916 28.984 264.948 28.7707 264.948 28.504V25.64H266.26V27.912C266.26 28.1787 266.276 28.424 266.308 28.648C266.34 28.8613 266.415 29.0427 266.532 29.192C266.649 29.3413 266.815 29.4587 267.028 29.544C267.252 29.6293 267.551 29.672 267.924 29.672C268.159 29.672 268.361 29.6613 268.532 29.64C268.703 29.6187 268.847 29.5707 268.964 29.496C269.081 29.4107 269.167 29.2933 269.22 29.144C269.284 28.984 269.316 28.7707 269.316 28.504V25.64H270.628V27.912C270.628 28.1787 270.644 28.424 270.676 28.648C270.719 28.8613 270.793 29.0427 270.9 29.192C271.017 29.3413 271.172 29.4587 271.364 29.544C271.567 29.6293 271.828 29.672 272.148 29.672C272.329 29.672 272.495 29.6613 272.644 29.64C272.793 29.6187 272.921 29.5707 273.028 29.496C273.135 29.4107 273.215 29.2933 273.268 29.144C273.332 28.984 273.364 28.7707 273.364 28.504V24.84H274.676V27.912C274.676 28.1787 274.692 28.424 274.724 28.648C274.767 28.8613 274.841 29.0427 274.948 29.192C275.055 29.3413 275.199 29.4587 275.38 29.544C275.561 29.6293 275.791 29.672 276.068 29.672C276.495 29.672 276.708 29.8853 276.708 30.312C276.708 30.5787 276.655 30.76 276.548 30.856C276.452 30.952 276.292 31 276.068 31C275.652 31 275.316 30.904 275.06 30.712C274.804 30.5093 274.633 30.2587 274.548 29.96C274.452 30.184 274.319 30.3653 274.148 30.504C273.977 30.632 273.796 30.7333 273.604 30.808C273.412 30.8827 273.225 30.936 273.044 30.968C272.863 30.9893 272.708 31 272.58 31C272.228 31 271.929 30.968 271.684 30.904C271.449 30.84 271.252 30.76 271.092 30.664C270.932 30.5573 270.804 30.4453 270.708 30.328C270.623 30.2 270.553 30.0773 270.5 29.96C270.308 30.3973 270.009 30.68 269.604 30.808C269.209 30.936 268.735 31 268.18 31C267.807 31 267.492 30.9733 267.236 30.92C266.991 30.856 266.788 30.776 266.628 30.68C266.468 30.5733 266.34 30.456 266.244 30.328C266.148 30.2 266.068 30.072 266.004 29.944C265.908 30.168 265.785 30.3493 265.636 30.488C265.497 30.616 265.311 30.7227 265.076 30.808C264.852 30.8827 264.569 30.936 264.228 30.968C263.897 30.9893 263.497 31 263.028 31H262.5C262.073 31 261.86 30.7867 261.86 30.36C261.86 30.0933 261.913 29.912 262.02 29.816C262.116 29.72 262.276 29.672 262.5 29.672H263.06ZM276.078 31C275.651 31 275.438 30.7867 275.438 30.36C275.438 30.0933 275.491 29.912 275.598 29.816C275.694 29.72 275.854 29.672 276.078 29.672H278.574V24.84H279.886V31H276.078ZM277.15 22.152C277.15 21.9173 277.23 21.72 277.39 21.56C277.561 21.3893 277.763 21.304 277.998 21.304C278.233 21.304 278.43 21.3893 278.59 21.56C278.761 21.72 278.846 21.9173 278.846 22.152C278.846 22.3867 278.761 22.5893 278.59 22.76C278.43 22.92 278.233 23 277.998 23C277.763 23 277.561 22.92 277.39 22.76C277.23 22.5893 277.15 22.3867 277.15 22.152ZM279.23 22.152C279.23 21.9173 279.31 21.72 279.47 21.56C279.641 21.3893 279.843 21.304 280.078 21.304C280.313 21.304 280.51 21.3893 280.67 21.56C280.841 21.72 280.926 21.9173 280.926 22.152C280.926 22.3867 280.841 22.5893 280.67 22.76C280.51 22.92 280.313 23 280.078 23C279.843 23 279.641 22.92 279.47 22.76C279.31 22.5893 279.23 22.3867 279.23 22.152Z" fill="white"/>
<path d="M313.013 17H304.988V20.9997H313.013V17Z" fill="white"/>
<path d="M313.012 21.0001V24.9999H309V29.0001H313.012V37H317.025V21.0001H313.012Z" fill="white"/>
<path d="M304.987 21.0001H300.975V29.0001H304.987V21.0001Z" fill="white"/>
<path d="M304.987 32.9999H300.975V36.9997H304.987V32.9999Z" fill="white"/>
<path opacity="0.4" d="M33.8051 20.407C33.4776 19.9624 32.8516 19.8674 32.4069 20.1949C32.0615 20.4493 31.7332 20.7037 31.4472 20.9269C30.8764 21.3724 30.1118 21.9857 29.3444 22.6521C28.5819 23.3141 27.7936 24.0482 27.1881 24.7334C26.8864 25.0749 26.6089 25.4279 26.4014 25.7721C26.2105 26.0888 26 26.524 26 27.0001C26 27.4762 26.2105 27.9115 26.4014 28.2282C26.6089 28.5724 26.8864 28.9253 27.1881 29.2668C27.7936 29.9521 28.5819 30.6861 29.3444 31.3482C30.1118 32.0145 30.8764 32.6278 31.4472 33.0734C31.7332 33.2965 32.0615 33.551 32.4069 33.8054C32.8516 34.1329 33.4776 34.0379 33.8051 33.5932C33.9368 33.4144 34.0002 33.2064 34 33.0002L34 21.0001C34.0002 20.7939 33.9368 20.5858 33.8051 20.407Z" fill="white"/>
<path d="M27.1881 24.7334C26.8864 25.0749 26.6089 25.4279 26.4014 25.7721C26.2105 26.0888 26 26.524 26 27.0001C26 27.4762 26.2105 27.9115 26.4014 28.2282C26.6089 28.5724 26.8864 28.9253 27.1881 29.2668C27.7936 29.9521 28.5819 30.6861 29.3444 31.3482C30.1118 32.0145 30.8764 32.6278 31.4472 33.0734C31.7332 33.2965 32.0615 33.551 32.4069 33.8054C32.8516 34.1329 33.4776 34.0379 33.8051 33.5932C33.9368 33.4144 34.0002 33.2064 34 33.0002L34 28L28.9491 23C28.3157 23.5656 27.6893 24.1662 27.1881 24.7334Z" fill="white"/>
</svg>
